<?xml version="1.0" encoding="UTF-8"?>
<!DOCTYPE svg PUBLIC "-//W3C//DTD SVG 1.1//EN" "http://www.w3.org/Graphics/SVG/1.1/DTD/svg11.dtd">
<!-- Creator: CorelDRAW 2020 (64 Bit) -->
<svg xmlns="http://www.w3.org/2000/svg" xml:space="preserve" width="297mm" height="210mm" version="1.1" style="shape-rendering:geometricPrecision; text-rendering:geometricPrecision; image-rendering:optimizeQuality; fill-rule:evenodd; clip-rule:evenodd"
viewBox="0 0 29700 21000"
 xmlns:xlink="http://www.w3.org/1999/xlink"
 xmlns:xodm="http://www.corel.com/coreldraw/odm/2003">
 <defs>
  <style type="text/css">
   <![CDATA[
    .fil0 {fill:#390099}
   ]]>
  </style>
 </defs>
 <g id="Camada_x0020_1">
  <metadata id="CorelCorpID_0Corel-Layer"/>
  <g id="_1608526892736">
   <path class="fil0" d="M15779.16 14292.29c120.81,-63.93 133,-87.8 232.45,-165.99 75.37,-59.26 139.83,-109.98 221.96,-176.48l1376.42 -1080.6c157.36,-118.84 302.97,-209.7 473.5,-323.39 416.69,-277.8 1233.76,-822.28 1713.24,-710.57 36.33,436.47 -144.62,658.39 -426.85,1034.08 -297.37,395.87 -876.98,1073.92 -1243.09,1379.95 -115.21,96.31 -157.33,125.78 -263.87,234.17 -227.79,231.74 -619.29,551.42 -949.05,644.72 -252.5,71.43 -635.17,66.77 -830.86,-77.24 -101.84,-74.96 -176.37,-171.88 -223.86,-307.39 -55.44,-158.19 -25.74,-338.19 -79.99,-451.26zm-8931.64 2523.43c0,-707.13 -58.86,-1851.15 26.81,-2463.41 80.38,-574.53 411.51,-749.49 795.62,-1063.75l2929.3 -2350.01c81.37,-64.89 96.22,-105.03 199.44,-132.59 264.28,1134.37 1496.6,1071.25 2085.72,691.18 120.34,-77.64 174.16,-124.99 285.72,-212.31 433.51,-339.33 1242.77,-1150.6 1280.9,-1176.14 0,604.72 -180.75,778.25 -626.5,1133.27 -338,269.21 -658.48,527.89 -996.09,796.87l-5475.24 4386.09c-168.69,138.02 -329.88,273.08 -505.68,390.8zm8300.78 -4382.81c-548.99,0 -863.28,-155.99 -863.28,-830.08 0,-109.5 266.67,-276.89 406.07,-390.8l899.16 -727.79c160.25,-130.52 305.79,-230.15 473.46,-356.61 493.7,-372.35 1589.16,-1114.64 2172.47,-1114.64 62.51,0 99.62,122.47 99.62,199.22 0,328.28 -527.44,1031.86 -738.78,1253.41 -531.69,557.37 -703.58,815.95 -1378.18,1410.88 -297.85,262.68 -647.33,556.41 -1070.54,556.41zm-3884.77 -2025.38l1764.43 -1389.87c312.85,-236.27 1578.76,-1086.77 1946.52,-993.74 309.05,78.18 -103.25,694.22 -164.37,783.68l-633.38 794.37c-94.89,97.45 -129.02,164.71 -231.75,266.29 -174.74,172.76 -325.19,323.17 -498.27,497.82 -267.96,270.39 -764.84,706.9 -1115.79,810 -234.97,69.03 -576.21,80.37 -775.3,-64.56 -270.39,-196.83 -213.4,-366.22 -292.09,-703.99zm-4914.06 3951.16l0 3751.95c0,427.92 468.57,896.49 896.49,896.49l630.85 0c239.56,0 310.81,-264.06 188.1,-418.89 -113.44,-143.12 -463.22,-64.04 -685.29,-80 -564.56,-40.6 -532.1,-436.03 -532.1,-1028.45 148.96,-39.78 4920.36,-3925.17 5208.52,-4154.75l1730.93 -1390.18c303.18,1301.36 1758.39,1338.26 2814.61,291.18l863.29 -830.08c111.08,-112.27 156.67,-251.18 306.48,-291.18 0,219.63 28.76,271.42 7.49,436.49 -60.58,470.25 -224.97,691.91 -585.96,977.24l-4642.07 3725.12c-391.88,320.61 -770.24,609.09 -1162.11,929.69l-866.07 694.47c-104.36,84.5 -197.46,149.47 -295.8,235.45 -96.5,84.38 -168.46,143.24 -272.56,225.49 -132.86,105.01 -147.57,173.41 -349.04,182.21 -318.5,13.89 -831.93,-99.11 -831.93,230.56 0,160.61 105.02,265.63 265.63,265.63l5378.9 0c389.8,0 801.44,-182.3 1043.02,-351.5l1554.47 -1234.61c78.46,-64.2 339.11,-253.45 378.1,-321.66 109.62,-191.79 -47.5,-622.83 -544.28,-209.75l-1454.06 1168.99c-253.87,200.05 -345.79,276.3 -681.18,381.32 -484.03,151.59 -3351.84,69.16 -4147.63,69.16 50.55,-68.99 206.46,-176.54 288.39,-242.85 108.59,-87.89 183.35,-148.71 294.92,-236.34 209.23,-164.34 383.62,-306.8 589.23,-473.27l3575.51 -2865.89c291.39,1250.78 1642.91,1252.18 2579.92,454.93 117.22,-99.73 823.96,-789.3 939.61,-820.18 0,372.41 64.82,729.59 -259.88,1134.67 -113.46,141.56 -236.61,236.08 -378.62,351.85 -206.44,168.3 -357.6,213.58 -357.6,439.27 0,282.46 291.68,290.1 488.99,123.76 599.97,-505.81 1038.35,-812.72 1038.35,-1817.12 0,-236.7 -89.4,-537.6 -166.01,-697.26l351.34 -379.13c116.5,-148.21 208.41,-264.86 318.03,-412.45 198,-266.62 459.54,-736.95 459.54,-1134.21 0,-484.7 -355.26,-630.86 -763.68,-630.86 -231.02,0 -530.06,124.72 -696.89,199.59 -145.61,65.35 -477.14,266.18 -598.03,298.46 6.46,-289.72 102.37,-479.84 -45.09,-918.03 -164.43,-488.65 -30.58,-134.67 441.75,-1042.74 457.51,-879.57 87.79,-1814.08 -1492.61,-1027.77 -424.63,211.27 -1140.62,677.6 -1498.83,958.21 -224.57,175.92 -461.52,381.63 -692.33,536.19 0,-147.11 -9.04,-265.14 -27.41,-371.02 -83.92,-483.79 -201.4,-131.88 326.3,-923.84 240.52,-360.98 298.77,-531.02 298.77,-929.75 0,-343.82 -271.66,-564.45 -664.06,-564.45 -562.25,0 -1480.27,574.34 -1972.58,916.1 -195.39,135.62 -366.26,272.59 -546.28,416.6l-4814.67 3851.34c-523.4,417 -1232.88,869.54 -1232.88,1655.8z"/>
   <path class="fil0" d="M20759.63 11005.18c-160.3,-37.35 -594.77,-415.59 -630.86,-464.85 127.31,-173.75 498.56,-379.4 852.4,-1139.78 101.82,-218.81 192.77,-484.07 257.11,-738.98 36.98,-146.57 61.04,-263.28 89.07,-408.99 45.57,-236.79 -43.2,-329.96 195.94,-335.29 0,545.03 -120.82,1256.51 -225.42,1700.35 -61.31,260.17 -314.21,1175.02 -538.24,1387.54zm2589.84 -6740.23l0 736.06c-20.19,177.24 -74.47,328.58 -206.07,452.39 -344.64,324.26 -609.55,179.45 -922.84,106.47 0,376.07 49.01,1593.73 -26.9,1832.47 -72.76,228.84 -157.3,98.87 -172.97,756.72 -18.45,775.89 -208.03,1654.71 -443.08,2345.96 -143.72,422.65 -344.66,1008.2 -817.98,1008.2 -386.5,0 -414.14,-123.25 -744.49,-384.42 -178.07,-140.79 -417.63,-279.58 -417.63,-578.47 0,-505.97 762.23,-420.57 1189.13,-2230.8 211.45,-896.63 -2.55,-743.64 -26.65,-1056.68l-0.36 -2124.62c-154.46,-12.86 -618.37,-168.39 -725.62,-237.28 -172.01,-110.51 -336.88,-321.4 -336.88,-592.81l0 -1660.15c0,-329.95 295.44,-630.86 630.86,-630.86l2390.62 0c339.35,0 630.86,291.51 630.86,630.86l0 464.84c0,309.91 -413.45,328.92 -486.07,87.64 -88.02,-292.4 123.62,-685.29 -244.4,-685.29 -457.89,0 -2024.51,-44.36 -2357.42,33.19 -38.52,80.31 -66.4,145.27 -66.4,265.63 0,1686.73 -137.68,1589.69 460.92,1763.69l1996.1 560.54c310.12,0 174.55,-557.07 198.51,-864.01 28.5,-365.24 498.76,-326.12 498.76,0.73zm-1693.36 3087.89c-464.31,108.16 -365.24,-36.2 -365.24,-896.49 0,-387.37 0,-774.74 0,-1162.11 125.35,29.2 277.14,89.51 398.45,99.6 0,336.47 43.84,1786.57 -33.21,1959z"/>
  </g>
 </g>
</svg>
