<?xml version="1.0" encoding="UTF-8"?>
<!DOCTYPE svg PUBLIC "-//W3C//DTD SVG 1.1//EN" "http://www.w3.org/Graphics/SVG/1.1/DTD/svg11.dtd">
<!-- Creator: CorelDRAW 2020 (64 Bit) -->
<svg xmlns="http://www.w3.org/2000/svg" xml:space="preserve" width="297mm" height="210mm" version="1.1" style="shape-rendering:geometricPrecision; text-rendering:geometricPrecision; image-rendering:optimizeQuality; fill-rule:evenodd; clip-rule:evenodd"
viewBox="0 0 29700 21000"
 xmlns:xlink="http://www.w3.org/1999/xlink"
 xmlns:xodm="http://www.corel.com/coreldraw/odm/2003">
 <defs>
  <style type="text/css">
   <![CDATA[
    .fil0 {fill:#390099}
   ]]>
  </style>
 </defs>
 <g id="Camada_x0020_1">
  <metadata id="CorelCorpID_0Corel-Layer"/>
  <g id="_1608524421792">
   <path class="fil0" d="M14810.78 18539.24c-448.58,0 -851.19,-373.78 -851.19,-818.8l0 -5965.6 1586.31 0c89.15,0 116.07,27.13 116.07,116.97l0 5575.69c0,607.94 -279.28,1091.74 -851.19,1091.74zm-851.19 -7486.24l1702.38 0 0 233.95 -1702.38 0 0 -233.95zm-5107.13 -6160.55c260.75,0 395.18,-65.26 518.98,-217.8 173.22,-213.45 113.32,-323.62 177.44,-601.01 247.69,0 274.57,-34.41 275.02,229.72 0.58,331.84 -10.95,568.91 215.96,796.13 75.1,75.21 61.48,63.5 154.23,117.5 38.88,22.65 40.62,19.53 75.76,40.64 81.15,48.76 33.8,13.15 91.53,63.72 -690.86,0 -1435.12,150.93 -1508.92,-428.9zm10446.41 428.9l764.38 -789.33c9.43,310.64 24.3,486.86 -133.73,645.06 -150.17,150.36 -345.72,144.27 -630.65,144.27zm-10291.65 -935.78c-299.3,-6.72 -193.46,-98.8 -193.46,-1247.71 0,-401.8 186.29,-662.84 580.35,-662.84l2747.03 0 0 3158.26c0,460.09 -704.5,545.86 -829.54,95.15 -43.68,-157.45 5.85,-673.79 -479.82,-842.15 -289.04,-100.21 -122.43,72.15 -509.09,-188.79 0,-362.31 73.48,-1130.73 -657.74,-1130.73 -438.63,0 -657.73,366.34 -657.73,818.81zm6161.35 9.65l329.48 350.49c245.9,-169.74 2134.02,-2178.39 2246.24,-2238.72 179.64,-96.58 1186.08,-31.97 1477.2,-31.97 -54.43,81.91 -216.99,278.17 -309.52,311.92 15.51,187.85 187.42,307.52 309.52,389.91l648.92 -632.79c294.31,427.41 202.27,354.84 202.27,1256.64 0,127.86 -411.85,473.54 -512.65,575.12l-829.09 841.07c-150.97,152.2 -199.7,107.03 -476.4,104.77 -373.7,-3.05 -748.52,-0.31 -1122.33,-0.31l1750.43 -1784.15 -309.78 -330.53 -555 511.79c-5.49,5.81 -13.49,14.06 -19.1,19.75l-811.95 819.36c-1029.32,975.91 -386.41,763.78 -2221.27,763.78l201 -226.66 -325.27 -350.09c-122.65,80.18 -214.1,196.08 -330.34,313.57 -416,420.45 -231.7,263.18 -1712.05,263.18 141.32,-212.7 646.25,-670.78 860.86,-887.04l1779.12 -1794.23c221.84,-233.63 207.05,-165.22 726.08,-165.06 296.64,0.09 593.26,0 889.88,0l-1886.25 1920.2zm-2514.87 350.93c-9.58,-386.54 -6.27,-764.95 -10.8,-1141.62 -3.52,-292.69 -33.16,-266.55 124.98,-419.92l561.78 -564.61c165.64,-175.31 120.54,-150.05 435.27,-146.21 373.77,4.56 749.26,1.23 1123.23,1.23l-2234.46 2271.13zm-1.29 -2145.81l-8.29 -125.32 116.07 0 -107.78 125.32zm-4302.94 303.57l0 1988.54c0,452.08 413.97,835.2 812.88,896.41 487.26,74.76 1114.56,39.37 1663.31,39.37 168.16,353.18 330.5,701.84 928.58,701.84 415,0 771.8,-358.46 851.18,-701.84l6733.48 1.34c1300.59,-1.03 1236.76,-883.02 1236.76,-1677.95l309.52 0 0 3899.09c-1156.02,271.41 -3495.87,621.92 -4820,874.23l-1187.57 206.88c-446.4,81.72 -337.66,-85.52 -337.66,1414.3l-967.27 0c-89.14,0 -116.07,27.14 -116.07,116.97l0 6862.39c0,430.11 121.96,801.9 337.36,1024.72 419.49,433.95 607.2,456.93 1171.57,456.93 558.53,0 1160.72,-652.81 1160.72,-1208.72l0 -7252.29 -1083.34 0 0 -935.78c819.61,-192.43 2244.84,-395.89 3150.24,-568.42l3156.31 -562.31 0 -4834.87 -773.81 0 0 -623.85c0,-508.53 -400.1,-1013.76 -889.89,-1013.76l-10446.42 0c-439.38,0 -889.88,459.94 -889.88,896.78z"/>
   <path class="fil0" d="M14539.95 17564.48c0,155.45 109.6,116.97 386.91,116.97 89.14,0 116.06,-27.14 116.06,-116.97l0 -4366.98 -502.97 0 0 4366.98z"/>
   <polygon class="fil0" points="14539.95,12807.59 15042.92,12807.59 15042.92,12222.73 14539.95,12222.73 "/>
  </g>
 </g>
</svg>
