<?xml version="1.0" encoding="UTF-8"?>
<!DOCTYPE svg PUBLIC "-//W3C//DTD SVG 1.1//EN" "http://www.w3.org/Graphics/SVG/1.1/DTD/svg11.dtd">
<!-- Creator: CorelDRAW 2020 (64 Bit) -->
<svg xmlns="http://www.w3.org/2000/svg" xml:space="preserve" width="297mm" height="210mm" version="1.1" style="shape-rendering:geometricPrecision; text-rendering:geometricPrecision; image-rendering:optimizeQuality; fill-rule:evenodd; clip-rule:evenodd"
viewBox="0 0 29700 21000"
 xmlns:xlink="http://www.w3.org/1999/xlink"
 xmlns:xodm="http://www.corel.com/coreldraw/odm/2003">
 <defs>
  <style type="text/css">
   <![CDATA[
    .fil0 {fill:#390099}
   ]]>
  </style>
 </defs>
 <g id="Camada_x0020_1">
  <metadata id="CorelCorpID_0Corel-Layer"/>
  <path class="fil0" d="M10351.49 15750.6c125.55,33.06 233.87,134.66 374.86,204.92 284.46,141.78 692.77,278.86 742.06,417.41 36.29,102.02 16.38,231.56 174.64,402.41 306.2,330.58 1453.95,392.81 1932.22,392.81 1033.11,0 2719.78,57.65 3679.04,-87.28 334.62,-50.58 637.43,-99.08 837.58,-323.19 251.19,-281.22 36.58,-387.64 291.64,-516.89l978.98 -490.19 -155.3 1724.1c-17.71,557.55 -62.8,1111.01 -815.71,1111.01l-7068.99 0c-743.48,0 -798.8,-542.98 -815.6,-1072.82 -9.41,-296.75 -63.17,-605.49 -77.02,-881.82 -15.38,-306.96 -41.97,-600.3 -78.4,-880.47zm9515.96 -957.81l156.06 -1991.53c32.16,-641.47 154.66,-1319.1 154.66,-1992.95 418.95,0 1087.54,69 1087.54,-727.92l155.36 0c0,1446.58 89.52,1870.15 -482.38,3240.47 -68.27,163.59 -141.73,261.65 -216.69,399.26 -135.47,248.74 -652.55,939.23 -854.55,1072.67zm-11574.5 -3486.41l0 -1225.99 155.36 0c0,796.92 668.58,727.92 1087.54,727.92 0,826.81 212.02,2159.38 233.03,2988.36 8.36,329.74 77.69,654.79 77.69,996.12 -404.16,-458.63 -804.43,-852.04 -1054.74,-1449.92 -62.17,-148.55 -128.15,-266.07 -183.72,-431.76 -180.53,-538.43 -315.16,-965.62 -315.16,-1604.73zm1475.93 -2605.23l10176.25 0 -200.14 2446.13c-26.27,245.4 -63.14,537.54 -71.81,810.34l-200.07 2446.2c-23.93,223.42 -71.75,563.48 -71.75,810.41 -305.84,159.62 -418.74,287.77 -931.6,536.94 -115.27,55.98 -237.55,93.91 -350.15,152.68 -290.95,-542.38 -1042.15,-191.57 -1514.77,-191.57l-3495.66 0c-612.77,0 -1134.56,-368.54 -1514.79,191.57 -214.57,-112 -446.22,-187.31 -658.64,-308.13 -211.46,-120.28 -409.87,-270.21 -623.09,-381.49 0,-448.12 -164.04,-1834.88 -194.93,-2451.29l-348.85 -4061.79zm-466.08 -842.87c0,-200.52 173.53,-421.45 388.41,-421.45l10331.6 0c504.36,0 504.36,842.87 0,842.87l-10331.6 0c-214.88,0 -388.41,-220.92 -388.41,-421.42zm1631.31 -2068.87c119.11,-56.39 625.51,-217.46 776.81,-229.87 3.3,146.52 364.11,1287.77 427.24,1417.55l-854.49 0c-3.29,-145.39 -291.28,-1067.84 -349.56,-1187.68zm3961.74 1187.68l-621.45 0c0,-232.38 103.43,-1464.07 155.36,-1570.8l621.45 38.31 -155.36 1532.49zm-3340.29 -2107.17l0 306.5c-205.44,4.5 -530.87,143.95 -737.98,191.55 -679.33,-1266.4 -1689.67,26.52 -2136.23,-574.67l4311.3 -1264.32c-35.07,415.7 -498.37,416.52 -839.31,551.35 -295.26,116.77 -597.78,408.07 -597.78,789.59zm8234.21 0c0,393.3 -1362.69,639.3 -496.25,1600.54 133.33,147.91 246.93,331.51 340.88,506.63l-3495.65 0c185.21,-380.77 325.41,-577.91 761.5,-857.98 367.35,-235.92 588.81,-576.27 296.26,-1028.28 -271.96,-420.23 -606.24,-525.02 -37.36,-938.45 339.31,-246.6 767.12,-364.82 805.1,-814.95 398.43,0 689.1,114.93 1087.54,114.93 -27.72,328.5 -36.22,451.4 281.42,756.83 110.71,106.46 456.56,495.53 456.56,660.73zm-11885.23 -1111.06c0,211.88 270.06,1146.95 513.01,1371.26 147.8,136.48 419.31,281.69 683.32,265.57 327.64,-20 438.27,-180.97 901.06,-180.97 383.89,0 462.74,440.6 551.99,758.12 90.8,323.04 221.51,661.33 302.51,1004.25 -634.92,0 -1980.88,-184.62 -1980.88,881.19 0,309.07 225.03,664.43 466.09,727.92l0 306.5c-543.3,0 -893.33,232.55 -893.33,766.25 -751.41,0 -582.62,571.09 -582.62,1647.43 0,1523.24 746.82,2859.58 1737.55,3841.36 239.95,237.78 300.56,152.09 321.88,372.12 21.98,226.9 31.8,428.32 37.6,652.53 10.19,393 96.53,872.82 116.18,1264.65 22.17,442.63 34.16,868.04 262.15,1120.65 243.71,270.04 477.85,449.45 981.46,449.45l7068.99 0c491.99,0 718.09,-173.79 962.48,-429.84 247.92,-259.75 257.75,-673.48 281.13,-1140.26 19.64,-391.83 105.99,-871.65 116.17,-1264.65 31.67,-1222.38 65.47,-567.61 721.39,-1395.6 358.15,-452.09 576.34,-720.49 845.35,-1273.32 581.65,-1195.29 530.29,-2045.32 530.29,-3346.46 0,-416.92 -286.24,-498.06 -582.6,-498.06 0,-557.69 -355.12,-766.25 -893.34,-766.25l0 -306.5c408.19,-107.51 865.38,-1112.45 -146.57,-1541.16 -265.37,-112.44 -96.43,-134.14 -442.99,-635.78 -77.32,-111.9 -342.62,-383.02 -342.62,-504.92 0,-434.86 1500.57,-542.09 301.65,-1868.34 -64.58,-71.45 -58.37,-79.87 -119.62,-150.24 -49.32,-56.64 -151.4,-132.67 -163.94,-217.72 -27.92,-189.45 111.08,-185.67 146.88,-206.21 78.18,-44.88 67.14,-16.41 137.42,-94.32 147.24,-163.19 306.99,-931.33 -329.58,-1152.64 -184.17,-64.03 -1443.13,-274.36 -1719.85,-141.07 -361.08,173.93 -389.18,469.32 -389.18,803.88 0,363.89 564.79,368.02 -26.18,702.11 -2073.09,1171.97 328.89,1603.77 -633.74,2209.99 -181.05,114.01 -431.26,302.25 -567.18,474.96 -110.59,140.49 -253.53,324.68 -308.1,500.65 -36.5,117.72 -6.18,106.66 -57.28,211.7l-388.4 0 176.94 -1626.15c143.12,-487.61 218.76,275.78 399.1,-1407 30.12,-281.06 58.3,-548.25 81.14,-801.66 44.62,-495.02 -35.73,-961.97 -639.01,-1087.09 -504.39,-104.61 -1057.65,-69.85 -1274.83,425.79 -89.39,203.99 -299.7,2170.93 -202.86,2411.01 59.94,148.59 115.74,124.84 137.68,288.73 18.72,139.92 -27.41,255.88 -37.57,417.13 -17.76,281.61 -56.02,543.81 -81.06,839.55 -52.67,622 5.83,547.62 -383.68,541.02 -310.08,-5.26 -623.12,-1.33 -933.53,-1.33 -275.1,-1164.74 -977.48,-2209.33 -278,-2496.32 377.49,-154.87 1140.04,-199.56 1165.1,-1031.58 5,-165.69 -248.34,-968.66 -319.04,-1131.85 -196.89,-454.28 -608.02,-292.11 -1000.11,-172.33l-3369.48 1005.64c-339.71,107.07 -859.34,164.61 -859.34,608.21z"/>
 </g>
</svg>
