<?xml version="1.0" encoding="UTF-8"?>
<!DOCTYPE svg PUBLIC "-//W3C//DTD SVG 1.1//EN" "http://www.w3.org/Graphics/SVG/1.1/DTD/svg11.dtd">
<!-- Creator: CorelDRAW 2020 (64 Bit) -->
<svg xmlns="http://www.w3.org/2000/svg" xml:space="preserve" width="297mm" height="210mm" version="1.1" style="shape-rendering:geometricPrecision; text-rendering:geometricPrecision; image-rendering:optimizeQuality; fill-rule:evenodd; clip-rule:evenodd"
viewBox="0 0 29700 21000"
 xmlns:xlink="http://www.w3.org/1999/xlink"
 xmlns:xodm="http://www.corel.com/coreldraw/odm/2003">
 <defs>
  <style type="text/css">
   <![CDATA[
    .fil0 {fill:#390099}
   ]]>
  </style>
 </defs>
 <g id="Camada_x0020_1">
  <metadata id="CorelCorpID_0Corel-Layer"/>
  <g id="_1608486031120">
   <path class="fil0" d="M20759.63 14624.32l1137.09 1120.72 -1137.09 8.18 0 -1128.9zm-3718.75 763.68c0,-256.72 141.72,-398.44 398.43,-398.44 194,0 365.24,171.23 365.24,365.23l0 398.43 -763.67 0 0 -365.22zm-5146.48 -33.21c0,-194 171.23,-365.23 365.23,-365.23 256.71,0 398.43,141.72 398.43,398.44l0 365.22 -763.66 0 0 -398.43zm-2963.27 -738.66l8.18 1137.09 -1128.9 0 1120.72 -1137.09zm11986.35 -979.74l996.09 -1012.43 8.17 2000.36 -1004.26 -987.93zm-13132.11 996.1l-8.16 -2000.36 1004.25 987.92 -996.09 1012.44zm12982.43 -1992.19l-8.17 -1967.15 988.21 970.78 -980.04 996.37zm-11836.66 -1975.32l8.17 1967.15 -988.21 -970.79 980.04 -996.36zm11853.51 -1112.56l1137.09 -8.17 0 1128.9 -1137.09 -1120.73zm-12999.27 1128.9l-8.17 -1137.07 1128.91 0 -1120.74 1137.07zm12376.59 -5885.13l2357.43 0 0 3917.97 -2357.43 0 0 -3917.97zm-12982.42 0l2357.42 0 0 3917.97 -2357.42 0 0 -3917.97zm9794.92 830.09c-422.7,0 -517.95,-528.81 -272.26,-737.12 236.84,-200.82 703.91,-78.76 703.91,305.47 0,259.85 -171.8,431.65 -431.65,431.65zm-4681.63 -398.44c0,-540.38 830.07,-638.52 830.07,33.2 0,499.05 -830.07,484.73 -830.07,-33.2zm398.43 1228.51c649.18,0 1261.72,-543.74 1261.72,-1228.51 0,-177.36 -33.51,-290.44 -66.4,-431.65l1925.78 0c-160.67,689.59 63.98,1255.61 654.04,1537.35 1071.13,511.44 2073.56,-696.63 1670.18,-1537.35l1195.31 0 0 4183.6c0,406.06 189.62,564.46 597.65,564.46l0 6208.97 -1328.12 0 0 -464.84c0,-1391.59 -2390.63,-1623.27 -2390.63,232.43l0 232.41 -2722.65 0c0,-428.67 -5.1,-847.87 -289.55,-1138.19 -228.76,-233.51 -365.92,-370.84 -771.37,-426.21 -723.99,-98.88 -1329.71,522.99 -1329.71,1033.15l0 531.25 -1328.12 0 0 -6208.97c408.02,0 597.65,-158.4 597.65,-564.46l0 -4183.6 1195.32 0c-175.78,366.31 -46.01,865.62 155.64,1139.28 217.69,295.4 624.69,520.88 973.26,520.88zm7097.3 -3494.49l978.95 996.37 -1966.87 7.89 987.92 -1004.26zm-3951.18 0l978.97 996.37 -1966.89 7.89 987.92 -1004.26zm-3951.16 0l978.95 996.37 -1966.88 7.89 987.93 -1004.26zm-4109.02 -124.65l1137.08 1120.73 -1137.08 8.18 0 -1128.91zm13007.44 -25.02l1137.09 -8.19 0 1128.91 -1137.09 -1120.72zm-3950.89 -0.3l1966.89 -7.89 -987.94 1004.27 -978.95 -996.38zm-3951.17 0l1966.88 -7.89 -987.92 1004.27 -978.96 -996.38zm-3984.64 0.29l2000.35 -8.18 -987.93 1004.27 -1012.42 -996.09zm-1917.61 -439.81l0 1593.75c-269.26,0 -597.66,55.22 -597.66,398.44l0 4781.25c0,331.11 323.25,398.44 597.66,398.44l0 6208.97c-222.86,0 -630.87,-1.48 -630.87,365.24l0 2523.44c0,194 171.23,365.23 365.24,365.23l6375 0c503.6,0 503.6,-796.87 0,-796.87l-5943.37 0 0 -1626.95 15406.26 0 0 1626.95 -5943.36 0c-199.74,0 -368.51,168.41 -383.11,373.67 -13.66,192.09 138.71,423.2 349.9,423.2l6408.21 0c194,0 365.23,-171.23 365.23,-365.23l0 -2523.44c0,-363.17 -410.91,-365.24 -630.85,-365.24l0 -6208.97c274.4,0 597.65,-67.33 597.65,-398.44l0 -4781.25c0,-343.22 -328.41,-398.44 -597.65,-398.44l0 -1593.75c0,-194.01 -171.25,-365.24 -365.24,-365.24l-15007.82 0c-193.99,0 -365.22,171.23 -365.22,365.24z"/>
   <path class="fil0" d="M7976.43 5891.9c0,274.69 66.98,464.85 431.63,464.85 440.85,0 539.64,-796.88 -66.4,-796.88 -173.78,0 -365.23,148.34 -365.23,332.03z"/>
   <path class="fil0" d="M20925.65 5925.1c0,595.81 796.87,522.35 796.87,99.61 0,-139.02 21.05,-247.05 -126.17,-371.88 -304.48,-258.15 -670.7,52.06 -670.7,272.27z"/>
   <path class="fil0" d="M14451.03 18575.5c0,259.78 158.57,403.59 334.21,431.63l128.47 0c175.64,-28.01 334.2,-171.85 334.2,-431.63 0,-479.95 -796.88,-479.95 -796.88,0z"/>
   <path class="fil0" d="M20925.65 7552.06c0,458.53 796.87,620.16 796.87,-66.41 0,-440.02 -796.87,-472.37 -796.87,66.41z"/>
   <path class="fil0" d="M7976.43 7485.65c0,706.72 796.87,484.69 796.87,99.6 0,-608.41 -796.87,-520.2 -796.87,-99.6z"/>
  </g>
 </g>
</svg>
