<?xml version="1.0" encoding="UTF-8"?>
<!DOCTYPE svg PUBLIC "-//W3C//DTD SVG 1.1//EN" "http://www.w3.org/Graphics/SVG/1.1/DTD/svg11.dtd">
<!-- Creator: CorelDRAW 2020 (64 Bit) -->
<svg xmlns="http://www.w3.org/2000/svg" xml:space="preserve" width="297mm" height="210mm" version="1.1" style="shape-rendering:geometricPrecision; text-rendering:geometricPrecision; image-rendering:optimizeQuality; fill-rule:evenodd; clip-rule:evenodd"
viewBox="0 0 29700 21000"
 xmlns:xlink="http://www.w3.org/1999/xlink"
 xmlns:xodm="http://www.corel.com/coreldraw/odm/2003">
 <defs>
  <style type="text/css">
   <![CDATA[
    .fil0 {fill:#390099}
   ]]>
  </style>
 </defs>
 <g id="Camada_x0020_1">
  <metadata id="CorelCorpID_0Corel-Layer"/>
  <g id="_1608519013072">
   <path class="fil0" d="M11958.84 16049.05l2421.87 0c41.56,170.95 61.93,366.2 79.21,560.64 16.62,187.19 55.87,386.88 73.49,566.09 42.98,437.34 64.39,730.64 237.93,1045.02l-3164.06 0c198.41,-359.43 351.56,-1770.5 351.56,-2171.75zm12890.62 -8919.53l0 156.72c-18.29,198.29 -103.25,410.53 -241.84,630.3 -322.26,511.05 -588.34,1242.82 -1203.46,1242.82 -753.15,0 -679.31,-299.56 -1015.63,-299.56 -331.53,0 304.16,1422.88 -1250,1422.88l0 4717.94c0,580.07 -522.11,1048.43 -1132.82,1048.43l-4804.68 0c6.12,263.66 178.45,1638.88 284.11,1824.52 381.9,670.99 1473.7,32.59 1473.7,684.24 0,322.66 -184.2,449.32 -585.93,449.32l-6328.13 0c-618.35,0 -762.11,-341.43 -572.47,-622.64 212.36,-314.89 734.25,-60.01 1118.6,-239.28 573.36,-267.44 404.74,-1347.53 586.68,-2096.16 -518.94,0 -5203.96,39.11 -5479.5,-27.15 -387.63,-93.18 -848.63,-471.71 -848.63,-908.94l0 -10147.33c0,-457.74 502.02,-973.55 976.57,-973.55l4179.68 0c193.08,0 351.57,151.93 351.57,337.01 0,521.21 -424.57,411.87 -1054.69,411.87l-2734.38 0c-515.12,0 -937.5,-103.02 -937.5,411.9l0 8200.22 14687.5 0 0 -3070.4 -273.43 0c-500.73,0 -910.53,-410.58 -898.71,-1010.73 17.24,-875.71 -446.27,-112.59 -937.23,-112.59 -764.77,0 -802.66,-245.21 -1154.82,-802.67 -115.97,-183.57 -208.34,-333.36 -316.31,-520.58 -712.59,-1235.77 650.82,-1398.99 650.82,-1634.82 0,-314.9 -201.99,-172.89 -557.96,-513.6 -341,-326.41 -318.23,-582.17 -262.36,-946.73l-3125 0c-193.07,0 -351.55,-151.92 -351.55,-336.98 0,-425.57 211.69,-412.59 742.16,-411.91l3203.14 0.01c394.08,-713.9 777.98,-1134.58 1640.67,-673.93 259.83,138.73 225.28,193.64 468.71,37.39 0,-829.38 82.92,-1347.98 1250,-1347.98 1256.78,0 1875,-63.98 1875,1385.42 228.82,105.25 266.79,30.88 485.12,-96.61 166.16,-97.03 320.21,-165.49 569.57,-165.49 654.98,0 937.18,654.78 1275.65,1248.5 100.66,176.57 247.78,343.37 247.78,586.25 0,514.19 -174.42,729.37 -611.87,948.67 -345.34,173.13 -335.55,313.7 12.29,487.28 386.75,193.01 571.9,442.89 599.58,727.94zm-19218.75 7833.66l0 -823.77 14687.5 0c0,671.24 116.03,1123.32 -273.43,1123.32l-14101.57 0c-188.95,0 -312.5,-118.43 -312.5,-299.55zm17578.13 -8911.67c0,731.27 226.92,754.8 859.37,1160.76 -30.53,125.63 -83.32,204.37 -148.63,306.85 -141.01,221.33 -400.72,767.58 -593.55,891.36 -256.3,-57.24 -776.55,-571.75 -1400.55,-181.75 -197.77,123.59 -325.25,265.07 -421.11,494.98 -151.26,362.78 82.63,772.65 -170.53,772.65 -1575.08,0 -1362.78,95.52 -1367.21,-336.98 -1.08,-104.97 -28.14,-298.12 -56.94,-394.75 -136.65,-458.72 -665.23,-757.24 -1151.6,-653.18 -177.05,37.87 -189.72,50.68 -332.02,132.82 -455.92,263.17 -361.21,253.1 -727.06,-356.07 -617.32,-1027.87 -344.07,-552.67 208.05,-1040.1 154.02,-135.96 301.78,-415.85 301.78,-684.26 0,-806.14 -859.38,-924.7 -859.38,-1085.87 0,-132 628.76,-1160.77 703.13,-1160.77 214.23,0 1097.46,757.6 1736.41,-132.85 107.29,-149.51 129.43,-261.72 162.61,-480.68 93.09,-614.4 -365.93,-509.79 1343.17,-509.79 327.77,0 -4.35,492.51 288.16,959.43 282.06,450.26 820.24,592.42 1340.42,339.56 426.46,-207.29 401.76,-302.01 620.72,64.63 112.34,188.1 493.95,796.3 524.13,920.47 -147.61,162.78 -308.69,183.5 -554.15,367.46 -145.15,108.79 -305.22,368.76 -305.22,606.08z"/>
   <path class="fil0" d="M21529.16 6126.4c0,949.89 -1267.01,1104.06 -1602.68,337.96 -263.55,-601.51 328.4,-1320.03 1091.73,-1046.5 248.14,88.91 510.95,377.72 510.95,708.54zm-2460.95 -74.89c0,1912.14 2410.97,2218.14 3125.86,749.69 289.39,-594.44 131.62,-1292.67 -336.35,-1738.65l-422.5 -306.44c-974.09,-518.23 -2367.01,217.56 -2367.01,1295.4z"/>
   <path class="fil0" d="M6958.84 9945.69c0,189.25 140.92,374.44 351.57,374.44l6757.8 0c488.89,0 488.89,-748.88 0,-748.88l-6796.87 0c-119.14,0 -312.5,172.19 -312.5,374.44z"/>
   <path class="fil0" d="M6958.84 11855.32c0,188.26 194.23,374.44 390.62,374.44l4804.7 0c441.52,0 657.79,-786.31 -195.32,-786.31l-4414.06 0c-327.45,0 -585.94,99.26 -585.94,411.87z"/>
   <path class="fil0" d="M13833.84 11855.32c0,188.26 194.23,374.44 390.62,374.44l3359.38 0c444.58,0 656.11,-786.31 -195.31,-786.31l-2968.75 0c-327.45,0 -585.94,99.26 -585.94,411.87z"/>
   <path class="fil0" d="M12466.66 5976.62c0,272.18 104.41,301.86 420.21,645.62 170.12,185.17 377.78,315.44 517.29,515.14 -231.48,331.34 -937.5,751.84 -937.5,1160.77 0,239.58 190.8,336.99 429.68,336.99 272.56,0 633.55,-515.99 810.37,-683.52 414.87,-393.08 869.97,-676.14 567.4,-1049.04 -303.5,-374 -516.74,-499.88 -762.24,-767.11 -140.65,-153.1 -365.92,-495.85 -654.59,-495.85 -197.44,0 -390.62,135.08 -390.62,337z"/>
   <path class="fil0" d="M6958.84 7137.38c0,242.55 783.55,956.86 1025.38,1188.85 161.48,154.9 240.03,308.91 498.06,308.91 212.36,0 390.63,-172.76 390.63,-374.44 0,-297.63 -696.54,-778.38 -937.5,-1123.32 72.87,-104.31 149.38,-157.18 244.9,-252.01 107.14,-106.34 137.93,-172.78 252.57,-282.11 146.99,-140.2 440.03,-344.32 440.03,-589.2 0,-190.31 -178.92,-374.44 -429.7,-374.44 -248.49,0 -639.6,496.66 -810.84,683.06 -175.62,191.18 -673.53,526.64 -673.53,814.7z"/>
   <path class="fil0" d="M9576.03 8223.26c0,291.73 125.34,411.88 429.68,411.88 273.83,0 414.52,-343.36 534.28,-536.29 215.57,-347.32 1262.6,-1857.39 1262.6,-2084.79 0,-337.8 -484.51,-566.9 -759.57,-166.43 -249.17,362.76 -1466.99,2230.46 -1466.99,2375.63z"/>
   <path class="fil0" d="M11333.84 4329.09c0,550.53 781.25,570.23 781.25,0 0,-452.33 -781.25,-452.33 -781.25,0z"/>
   <path class="fil0" d="M15396.34 9908.24c0,560.02 781.25,560.02 781.25,0 0,-452.33 -781.25,-452.33 -781.25,0z"/>
  </g>
 </g>
</svg>
