<?xml version="1.0" encoding="UTF-8"?>
<!DOCTYPE svg PUBLIC "-//W3C//DTD SVG 1.1//EN" "http://www.w3.org/Graphics/SVG/1.1/DTD/svg11.dtd">
<!-- Creator: CorelDRAW 2020 (64 Bit) -->
<svg xmlns="http://www.w3.org/2000/svg" xml:space="preserve" width="297mm" height="210mm" version="1.1" style="shape-rendering:geometricPrecision; text-rendering:geometricPrecision; image-rendering:optimizeQuality; fill-rule:evenodd; clip-rule:evenodd"
viewBox="0 0 29700 21000"
 xmlns:xlink="http://www.w3.org/1999/xlink"
 xmlns:xodm="http://www.corel.com/coreldraw/odm/2003">
 <defs>
  <style type="text/css">
   <![CDATA[
    .fil0 {fill:#390099}
   ]]>
  </style>
 </defs>
 <g id="Camada_x0020_1">
  <metadata id="CorelCorpID_0Corel-Layer"/>
  <g id="_1608526833216">
   <path class="fil0" d="M10699.08 5787.64c0,169.51 0.47,55.11 -33.21,99.64 0,-175.6 0.24,-49.52 33.21,-99.64zm0 0c7.02,-315.36 219.66,-287.45 -166.01,-863.58 189.36,-358.01 308.99,-440.06 70.69,-467.52 -31.58,-3.64 -375.31,-3.99 -406.61,-0.42 -354.11,40.54 78.95,300.35 16.8,510.51 -21.12,71.43 -103.97,199.26 -140.2,262.77 -133.55,234.09 4.55,379.99 27.68,657.88 -60.2,-69.27 -43.46,-50.72 -79.96,-152.51l-484.5 -1275.73c-638.15,0 -1320.61,-32.04 -1637.3,720.38 -77,182.91 -123.32,425.03 -123.61,673.51 -1.2,1063.13 1.25,2126.56 1.14,3189.77 -0.03,298.22 -29.33,525.34 97.2,699.91 99.14,136.79 320.63,254.82 581.05,178.3 476.07,-139.9 351.05,-734.15 351.05,-1243.59l-1.32 -1197.05c2.21,-179.06 30.61,-195.7 35.61,-362.95l-1.67 -1197.41c-2.17,-178.13 -36,-256.08 66.99,-331.56 162.18,43.32 99.65,125.39 99.61,564.65l0 4849.36c832.46,0 1060.85,378.15 1261.72,431.8l0 -2059.32 232.42 0c0,353.11 -41.62,2190.87 13.8,2377.66 47.51,160.17 534.18,690.56 138.39,1660.72 -40.43,99.11 -61.5,108.84 -85.78,213.12 165.1,0 267.54,15.85 376.15,25.98 155.55,14.5 172.61,-42.61 269.85,-110.45 286.26,-199.68 374.82,-163.93 549.31,-247.68l0 -6941.9c0,-807.53 -100.77,-763.94 166.01,-763.94 0,338.58 -33.37,910.08 9.07,1219.87 62.14,453.5 -161.77,1368.53 647.55,1231.54 163.21,-27.64 644.47,-352.76 804.33,-458.52l757.23 -471.45c70.4,-44.33 112.26,-64.6 185.92,-112.93 206.24,-135.32 412.72,-205.08 463.62,-502.1 41.25,-240.75 -166.79,-930.8 -1014.85,-381.48l-790.36 471.51c0,-749.41 105.63,-1750.76 -825.09,-2064.31 -261.74,-88.17 -582.62,-61.44 -934.68,-61.44 -11.07,133.17 -191.4,528.41 -251.42,678.51 -50.89,127.31 -82.41,205.74 -132.8,332.15 -29.37,73.67 -36.46,95.82 -65.29,167.2 -9.92,24.57 -17.01,45.62 -29.5,70.14 -40.1,78.76 -12.22,34.54 -52.24,80.6z"/>
   <path class="fil0" d="M9470.57 17911.05l0 1096.08 1095.7 0 33.21 -1361.8c106.39,2.36 166.01,-10.82 166.01,99.64l0 1262.16 2888.66 0 0 -1361.8c127.74,-27.07 199.23,-22.9 199.23,166.07l0 1195.73 2158.2 0 32.46 -1233.16c31.55,-216.65 166.76,-89 166.76,4.22l0 1228.94 2888.68 0 0 -1228.94c0,-88.83 47.92,-98.24 99.6,-132.86 67.21,49.26 99.6,76.25 99.6,199.29l0 1162.51 1095.72 0c0,-1099.13 174.56,-1972.7 -779.96,-2441.6 -155.13,-76.21 -395.74,-115.94 -614.58,-115.94l-2689.46 0c-399.72,0 -746.91,161.52 -959.86,368.4l-33.01 33.4c-206.95,216.29 -368.46,457.75 -368.46,793.94l-33.19 0c0,-716.41 -615.43,-1228.95 -1394.54,-1228.95l-2589.84 0c-910.75,0 -1460.93,594.13 -1460.93,1494.67z"/>
   <path class="fil0" d="M13322.13 5787.64c199.75,-46.55 395.91,-279.66 763.66,-365.36l0 -2125.75 7404.3 0 0 5314.37 -7404.3 0 0 -863.59c-156.57,41.82 -588.67,391.01 -763.66,431.79 0,445.04 -113.63,1162.53 332.02,1162.53l8300.78 0c177.78,0 298.84,-250.77 298.84,-498.23l0 -5779.37c0,-408.41 -190.3,-531.45 -597.66,-531.45l-7802.73 0c-700.48,0 -531.25,594.59 -531.25,1361.81 0,631.08 0,1262.17 0,1893.25z"/>
   <path class="fil0" d="M6349.47 15652.44l0 1096.08 1095.7 0c0,-354.44 -38.67,-1053.17 33.21,-1361.81l166.01 0c71.88,308.64 33.21,1007.37 33.21,1361.81l1460.93 0c94.94,0 117.88,-74.23 162.41,-136.46 168.49,-235.36 193.26,-253.88 461.35,-435.29 246.04,-166.48 532.8,-291.83 936.79,-291.83 -45.88,-196.99 -487.07,-898.66 -66.41,-1693.95 -951.66,0 -1903.98,3.52 -2855.57,-0.11 -272.88,-1.03 -408.65,4.69 -608.09,89.21 -552.15,234.01 -819.54,697.52 -819.54,1372.35z"/>
   <path class="fil0" d="M19398.3 14822.06c0,492.65 -1.21,625.77 -232.43,1062.88 310.39,0 709.63,155.01 916.49,278.93 481.07,288.2 500.36,584.65 644.06,584.65l1294.92 0 0 -1228.94c0,-100.93 57.6,-112.77 132.81,-132.87 67.21,49.27 99.62,76.26 99.62,199.3l0 1162.51 1095.7 0 0 -1129.29c0,-824.25 -529.16,-1407.5 -1327,-1429.37 -914.3,-25.05 -1871.02,1.13 -2790.19,1.13 48.69,209.04 166.02,351.1 166.02,631.07z"/>
   <path class="fil0" d="M13853.38 14888.49c0,679 -162.19,661.66 -232.42,963.24 411.16,0 754.73,133.99 1056.62,338.02 124.02,83.83 164,154.62 271.49,226.63 248.7,-131.64 359,-349.18 888.02,-473.49 114.02,-26.78 278.2,-27.96 406.92,-57.95 -47.13,-202.32 -371.86,-639.36 -178.33,-1340.9 38.15,-138.28 101.14,-223.58 111.92,-353.05l-2490.24 0c47.42,203.62 166.02,327.77 166.02,697.5z"/>
   <path class="fil0" d="M12060.41 16084.23l265.63 0c455.98,0 996.09,-540.31 996.09,-996.45 0,-349.25 -3.86,-573.53 -241.64,-854.35 -840.95,-993.11 -2399.82,-88.69 -1954.99,1125.3 75.87,207.09 190.95,351.98 346.47,483.77 120.25,101.89 381.91,241.73 588.44,241.73z"/>
   <path class="fil0" d="M16576.03 14855.28c0,379.91 34.57,635.08 305.87,922.97 729.47,774.06 2138.36,174.13 1943.79,-1013.58 -133.14,-812.76 -1259.08,-1334.98 -1992.41,-515.63 -108.95,121.75 -257.25,390.39 -257.25,606.24z"/>
   <path class="fil0" d="M14019.39 12596.67c0,406.47 28.08,634.6 372.89,955.58 980.89,913.04 2565.24,-456.73 1577.12,-1610.89 -190.56,-222.59 -471.13,-326.8 -772.91,-356.64 -289.97,-28.69 -624.93,113 -787.99,271.91 -167,162.74 -389.11,429.07 -389.11,740.04z"/>
   <path class="fil0" d="M7976.43 12596.67c0,431.65 23.79,608.45 372.64,955.81 457.5,455.54 1415.28,393.92 1775.65,-367.85 267.15,-564.74 -11.32,-1247.64 -520.49,-1485.61 -130.33,-60.9 -260.97,-95.78 -450.65,-114.24 -436.42,-42.49 -885.93,263.88 -1045.89,578.56 -49.43,97.24 -131.26,287.63 -131.26,433.33z"/>
   <path class="fil0" d="M19464.71 12729.53c0,920.41 1120.1,1510.77 1892.65,830.45 930.56,-819.46 -40.78,-2437.72 -1274.24,-1839.33l-250.21 181.49c-4.91,4.74 -11.94,11.61 -16.76,16.45 -183.82,184.39 -351.44,473.15 -351.44,810.94z"/>
   <path class="fil0" d="M10300.64 4126.9c246.17,0 307.86,4.09 554.37,-109.73 327.14,-151.06 605.19,-555.05 604.92,-952.92 -0.91,-1340.87 -2068.98,-1467.11 -2145.61,-26.7 -29.27,550.31 492.62,1089.35 986.32,1089.35z"/>
   <path class="fil0" d="M14849.47 5555.14c75.81,113.24 275.76,190.17 332.04,431.79 143.6,-38.36 912.75,-691.73 1095.34,-830.73 102.85,-78.28 299.18,-189.6 299.18,-365.01 0,-164.16 -134.72,-298.93 -298.83,-298.93 -154.87,0 -593.62,391.29 -730.46,498.23l-697.27 564.65z"/>
  </g>
 </g>
</svg>
