<?xml version="1.0" encoding="UTF-8"?>
<!DOCTYPE svg PUBLIC "-//W3C//DTD SVG 1.1//EN" "http://www.w3.org/Graphics/SVG/1.1/DTD/svg11.dtd">
<!-- Creator: CorelDRAW 2020 (64 Bit) -->
<svg xmlns="http://www.w3.org/2000/svg" xml:space="preserve" width="297mm" height="210mm" version="1.1" style="shape-rendering:geometricPrecision; text-rendering:geometricPrecision; image-rendering:optimizeQuality; fill-rule:evenodd; clip-rule:evenodd"
viewBox="0 0 29700 21000"
 xmlns:xlink="http://www.w3.org/1999/xlink"
 xmlns:xodm="http://www.corel.com/coreldraw/odm/2003">
 <defs>
  <style type="text/css">
   <![CDATA[
    .fil0 {fill:#390099}
   ]]>
  </style>
 </defs>
 <g id="Camada_x0020_1">
  <metadata id="CorelCorpID_0Corel-Layer"/>
  <g id="_1608715761120">
   <path class="fil0" d="M11637.71 13096.96l4895.86 0 0 597.75 -4895.86 0 0 -597.75zm5706.23 -796.89l2869.92 0 0 1328.11 -2869.92 0 0 -1328.11zm-5706.23 33.19l4929.61 0 0 597.75 -4929.61 0 0 -597.75zm1418.08 -6806.64l4052.91 -1.16c813.49,1.16 1376.49,331.92 1761.69,957.17 187.86,304.84 488.98,1659.3 600.75,2098.65l270.02 1095.77 -8137.2 0c0,1053.98 47.82,2216.42 2.37,3256.28 -6.81,156.79 -165.81,376.18 -25.91,784.38 51.52,150.53 26.35,1647.94 22.8,1903.28 -2.07,153.59 -45.15,331.48 102,331.48l5199.78 0 0 1195.34c0,480.99 150.41,694.85 437.9,897.34 761.97,536.6 2275.54,439.8 2714.04,-354.48 154.55,-279.94 89.41,-1534.68 89.41,-1937.49 141.38,-11.5 447.83,-187.51 545.53,-260.3 162.25,-120.83 276.99,-240.2 408,-395.82 272.55,-323.48 363.29,-692.08 363.29,-1269.59l0 -1959.04c0,-602.69 -172.76,-1123.28 -617.92,-1484.02 -74.46,-60.41 -107.62,-68.13 -158.55,-142.96 389.79,0 817.93,-70.31 1215.71,-66.09 252.56,2.62 354.71,-36.39 607.26,-33.63 249.16,2.62 395.42,-19.94 645.61,-29.26 154.85,-5.82 147,5.68 167.29,-134.22 45.59,-313.72 53.59,-1192.43 -143.16,-1391.14 -471.95,-476.92 -2145.26,131.6 -2560.36,226.66 0,427.86 -135.02,889.05 -135.02,1328.11 -208.59,-108.46 -146.71,-26.5 -210.07,-291.45l-303.48 -1295.35c-257.15,-1068.69 -360.48,-2279.6 -1261.01,-2943.58 -412.29,-303.97 -900.09,-549.71 -1601.95,-549.71l-3950.47 0c0,159.99 -49.15,357.83 -101.26,464.83z"/>
   <path class="fil0" d="M9375.35 17280.58l202.67 0c511.93,0 715.04,1062.43 -168.91,1062.43 -112.51,0 -285.43,-96.81 -344.05,-159.56 -294.75,-315.17 -92.82,-902.87 310.29,-902.87zm314.44 1726.55l-311.62 0c-198.97,-22.12 -395.57,-86.91 -579.44,-196.67 -640.86,-383.16 -740.2,-865.03 -740.2,-1695.84l0 -9695.34c-782.54,-407.18 -1237.47,-972.46 -1543.62,-1769.06 -207.55,-539.8 -218.66,-1285.89 -39.82,-1846.65 185.34,-581.01 415.99,-926.17 832.13,-1340.05 172.92,-172.07 396.9,-342.25 616.3,-456.39l0 2457.07c271.36,141.21 511.77,290.86 776.62,431.64 127.61,67.84 690.31,416.49 781.8,421.73 92.08,5.25 1426.37,-790.19 1547.92,-853.37l0 -2457.07c1503.2,782.19 2090.18,2853.18 1087.36,4323.23 -360.63,528.59 -571.29,682.61 -1087.36,1022.54l0 9761.72c0,611.28 -23.25,978.43 -311.04,1320.97 -280.24,333.67 -648.42,529.47 -1029.03,571.54z"/>
  </g>
 </g>
</svg>
