<?xml version="1.0" encoding="UTF-8"?>
<!DOCTYPE svg PUBLIC "-//W3C//DTD SVG 1.1//EN" "http://www.w3.org/Graphics/SVG/1.1/DTD/svg11.dtd">
<!-- Creator: CorelDRAW 2020 (64 Bit) -->
<svg xmlns="http://www.w3.org/2000/svg" xml:space="preserve" width="297mm" height="210mm" version="1.1" style="shape-rendering:geometricPrecision; text-rendering:geometricPrecision; image-rendering:optimizeQuality; fill-rule:evenodd; clip-rule:evenodd"
viewBox="0 0 29700 21000"
 xmlns:xlink="http://www.w3.org/1999/xlink"
 xmlns:xodm="http://www.corel.com/coreldraw/odm/2003">
 <defs>
  <style type="text/css">
   <![CDATA[
    .fil0 {fill:#390099}
   ]]>
  </style>
 </defs>
 <g id="Camada_x0020_1">
  <metadata id="CorelCorpID_0Corel-Layer"/>
  <path class="fil0" d="M14279.02 17878.26c0,-767.42 1140.89,-767.42 1140.89,0 0,706.81 -1140.89,706.81 -1140.89,0zm1543.68 -7337.84c0,1283.91 -1391.02,1563.41 -2021.98,1004.4 -316.67,-280.59 -772.85,-1139.36 -1021.5,-1579.15l-312.28 -554.31c-117.38,85.21 -301.5,491.9 -355.8,677.33 -435.33,1486.71 229.27,2841.53 1606.39,3430.93 370.61,158.66 713.42,208.23 1232.67,208.23 70.76,132.61 146.46,236.99 223.25,376.65 81.18,147.26 146.08,257.07 232.2,401.08 167.11,279.68 297.47,522.1 464.77,801.78 159.24,266.48 312.28,515.77 455.62,777.91l469.7 796.9 -6107.24 0 0 -13048.95 8321.93 0 0 11787.12c-17.92,-20.45 -37.12,-40.17 -60.52,-72.73 -39.49,-55.18 -27.24,-39.08 -62.53,-104.2 -358.54,-662.13 -890.96,-1485.26 -1252.79,-2147.21l-469.7 -796.9c23.95,-102.04 198.74,-388.59 302.41,-663.58 612.31,-1622.39 -538.63,-3686.01 -2819.14,-3686.01 8.96,107.1 87.21,214.19 135.85,297.23l826.23 1407.11c117.93,217.27 212.46,367.24 212.46,686.37zm-2181.23 -7703.28l2415.99 0c131.82,0 134.2,98.41 134.2,232.47 -277.73,64.04 -2406.66,64.04 -2684.39,0 0,-134.06 2.38,-232.47 134.2,-232.47zm-3792.01 365.25l0 14609.48c0,349.69 135.3,636.43 309.73,822.41 169.12,180 458.73,372.85 797.71,372.85l7785.13 0c588.54,0 1107.43,-534.77 1107.43,-1195.26l0 -14609.48c0,-650.36 -504.26,-1195.26 -1107.43,-1195.26l-7785.13 0c-340.62,0 -607.75,177.11 -781.07,356.03 -184.67,190.5 -326.37,477.05 -326.37,839.23z"/>
 </g>
</svg>
